<svg width="512" height="512" viewBox="0 0 512 512" fill="none" xmlns="http://www.w3.org/2000/svg">
<g clip-path="url(#clip0_96_5)">
<path d="M101.333 512H410.667C437.532 511.966 463.286 501.279 482.283 482.283C501.279 463.286 511.966 437.532 512 410.667V101.333C511.966 74.4685 501.279 48.7136 482.283 29.7173C463.286 10.7209 437.532 0.0338704 410.667 0L101.333 0C74.4685 0.0338704 48.7136 10.7209 29.7173 29.7173C10.7209 48.7136 0.0338704 74.4685 0 101.333L0 410.667C0.0338704 437.532 10.7209 463.286 29.7173 482.283C48.7136 501.279 74.4685 511.966 101.333 512ZM32 101.333C32.0226 82.9519 39.3346 65.3298 52.3322 52.3322C65.3298 39.3346 82.9519 32.0226 101.333 32H410.667C429.048 32.0226 446.67 39.3346 459.668 52.3322C472.665 65.3298 479.977 82.9519 480 101.333V410.667C479.977 429.048 472.665 446.67 459.668 459.668C446.67 472.665 429.048 479.977 410.667 480H101.333C82.9519 479.977 65.3298 472.665 52.3322 459.668C39.3346 446.67 32.0226 429.048 32 410.667V101.333Z" fill="white"/>
<path d="M256 386.774C328.107 386.774 386.773 328.107 386.773 256C386.773 183.894 328.107 125.227 256 125.227C183.893 125.227 125.227 183.894 125.227 256C125.227 328.107 183.893 386.774 256 386.774ZM256 157.227C310.464 157.227 354.773 201.536 354.773 256C354.773 310.464 310.464 354.774 256 354.774C201.536 354.774 157.227 310.464 157.227 256C157.227 201.536 201.536 157.227 256 157.227ZM391.637 157.056C412.672 157.056 428.523 141.27 428.523 120.342C428.523 98.5176 411.84 83.627 391.659 83.627C370.624 83.627 354.773 99.4136 354.773 120.342C354.773 142.123 371.371 157.056 391.637 157.056ZM395.413 116.822C402.155 122.774 386.773 130.006 386.773 120.363C386.773 114.603 394.603 116.096 395.413 116.822Z" fill="white"/>
</g>
<defs>
<clipPath id="clip0_96_5">
<rect width="512" height="512" fill="white"/>
</clipPath>
</defs>
</svg>
